<svg xmlns="http://www.w3.org/2000/svg" viewBox="0 0 1040 400" font-family="ui-sans-serif,-apple-system,Segoe UI,Roboto,Helvetica,Arial,sans-serif">
  <defs>
    <marker id="m" viewBox="0 0 10 10" refX="9" refY="5" markerWidth="7" markerHeight="7" orient="auto-start-reverse"><path d="M0,0 L10,5 L0,10 z" fill="#93a4b8"/></marker>
    <marker id="mb" viewBox="0 0 10 10" refX="9" refY="5" markerWidth="7" markerHeight="7" orient="auto-start-reverse"><path d="M0,0 L10,5 L0,10 z" fill="#6cb6ff"/></marker>
    <marker id="my" viewBox="0 0 10 10" refX="9" refY="5" markerWidth="7" markerHeight="7" orient="auto-start-reverse"><path d="M0,0 L10,5 L0,10 z" fill="#f0b429"/></marker>
    <style>
      text{fill:#e6edf3;font-size:13px}
      .t{font-weight:700}
      .mut{fill:#93a4b8;font-size:11.5px}
      .mono{font-family:ui-monospace,SFMono-Regular,Menlo,monospace}
    </style>
  </defs>
  <rect x="0" y="0" width="1040" height="400" rx="16" fill="#0d1117"/>
  <text x="40" y="46" font-size="22" class="t">Built by the harness grinding itself</text>
  <text x="40" y="70" class="mut">The Node loop-engineering harness is the stable grinder; this repo is its target. The port was driven test-first.</text>

  <!-- grinder on top -->
  <rect x="372" y="92" width="296" height="58" rx="11" fill="#10243b" stroke="#3b6ea5" stroke-width="1.5"/>
  <text x="520" y="118" class="t" fill="#6cb6ff" text-anchor="middle">loop-engineering (Node) — the grinder</text>
  <text x="520" y="138" class="mut" text-anchor="middle">drives the implementer · runs the gate · commits or reverts</text>
  <path d="M520 150 V196" fill="none" stroke="#6cb6ff" stroke-width="1.6" marker-end="url(#mb)"/>

  <!-- spine: stage 1 -> 2 -> 3 -->
  <rect x="36" y="200" width="288" height="138" rx="11" fill="#18222f" stroke="#33455f" stroke-width="1.5"/>
  <text x="56" y="228" class="t">① port the spec</text>
  <text x="56" y="252" class="mut">every *.test.mjs → pytest</text>
  <text x="56" y="272" class="mut">stubs raise NotImplementedError</text>
  <text x="56" y="298" class="mut">the test is the frozen contract</text>
  <rect x="56" y="308" width="180" height="22" rx="6" fill="#2a1518" stroke="#8a3b3b"/>
  <text x="146" y="323" class="mut" fill="#ff7b72" text-anchor="middle">suite starts RED</text>

  <rect x="360" y="196" width="392" height="146" rx="11" fill="#18222f" stroke="#3ee8c5" stroke-width="1.5"/>
  <text x="380" y="224" class="t" fill="#3ee8c5">② grind, tier by tier</text>
  <text x="380" y="248" class="mut mono">stub → implement → commit   (one module / run)</text>
  <text x="380" y="274" class="mut">behind the hybrid checker:</text>
  <text x="380" y="294" class="mut">gate ∧ coverage-of-change ∧ scope guards ∧ PEP-8 verifier</text>
  <path d="M412 308 c-30 0 -30 26 0 26 h150" fill="none" stroke="#f0b429" stroke-width="1.4" stroke-dasharray="5 4" marker-end="url(#my)"/>
  <text x="470" y="330" class="mut" fill="#f0b429">reject → revert → retry with feedback</text>

  <rect x="788" y="200" width="216" height="138" rx="11" fill="#10261f" stroke="#2f7f5e" stroke-width="1.5"/>
  <text x="808" y="228" class="t" fill="#56d364">③ result</text>
  <text x="808" y="252" class="mut">14 modules implemented</text>
  <text x="808" y="274" class="mut">82 tests green · ruff clean</text>
  <text x="808" y="296" class="mut">coverage-of-change held —</text>
  <text x="808" y="313" class="mut">no module without a test</text>

  <g fill="none" stroke="#93a4b8" stroke-width="1.7">
    <path d="M324 269 H360" marker-end="url(#m)"/>
    <path d="M752 269 H788" marker-end="url(#m)"/>
  </g>

  <text x="40" y="372" class="mut">13 / 14 modules landed by pure dogfooding; the cli orchestrator + a few integration bugs the e2e tests exposed were finished by hand —</text>
  <text x="40" y="390" class="mut">including a real coverage-of-change bug in the upstream harness, fixed there in turn.</text>
</svg>
